<?xml version="1.0" encoding="UTF-8" standalone="no"?>
<!-- Created with Inkscape (http://www.inkscape.org/) -->

<svg
   xmlns:dc="http://purl.org/dc/elements/1.1/"
   xmlns:cc="http://creativecommons.org/ns#"
   xmlns:rdf="http://www.w3.org/1999/02/22-rdf-syntax-ns#"
   xmlns:svg="http://www.w3.org/2000/svg"
   xmlns="http://www.w3.org/2000/svg"
   xmlns:sodipodi="http://sodipodi.sourceforge.net/DTD/sodipodi-0.dtd"
   xmlns:inkscape="http://www.inkscape.org/namespaces/inkscape"
   id="svg2"
   version="1.1"
   inkscape:version="0.91 r13725"
   width="1515.7896"
   height="318.3158"
   viewBox="0 0 1515.7896 318.3158"
   sodipodi:docname="northcode.svg">
  <metadata
     id="metadata8">
    <rdf:RDF>
      <cc:Work
         rdf:about="">
        <dc:format>image/svg+xml</dc:format>
        <dc:type
           rdf:resource="http://purl.org/dc/dcmitype/StillImage" />
        <dc:title></dc:title>
      </cc:Work>
    </rdf:RDF>
  </metadata>
  <defs
     id="defs6" />
  <sodipodi:namedview
     pagecolor="#ffffff"
     bordercolor="#666666"
     borderopacity="1"
     objecttolerance="10"
     gridtolerance="10"
     guidetolerance="10"
     inkscape:pageopacity="0"
     inkscape:pageshadow="2"
     inkscape:window-width="1920"
     inkscape:window-height="1057"
     id="namedview4"
     showgrid="false"
     inkscape:zoom="0.50006942"
     inkscape:cx="488.09702"
     inkscape:cy="233.8317"
     inkscape:window-x="0"
     inkscape:window-y="23"
     inkscape:window-maximized="0"
     inkscape:current-layer="svg2" />
  <path
     style="fill:#ff492d;fill-opacity:0.94117647"
     d="m 864.09461,279.92758 c -29.43167,-5.77012 -58.81055,-35.80511 -64.48703,-65.9272 -2.82041,-14.96641 -2.34739,-45.15921 0.90301,-57.6383 6.5833,-25.275 22.80007,-46.14143 43.1734,-55.55204 10.61589,-4.903565 13.77059,-5.445785 31.68449,-5.445785 17.82306,0 21.07321,0.55181 31.21178,5.299035 6.22436,2.91447 12.6191,6.471 14.21053,7.90341 5.21721,4.69591 8.3074,4.16073 9.41974,-1.6314 1.48028,-7.708055 7.03982,-10.843065 10.63736,-5.99838 3.66516,4.93576 3.85099,40.48733 0.23746,45.42912 -4.10081,5.60822 -9.14512,2.94703 -11.85955,-6.25667 -3.00991,-10.20547 -11.95919,-19.81756 -24.48889,-26.3026 -7.40319,-3.83169 -13.04182,-5.08503 -25.79988,-5.73471 -14.72688,-0.74993 -17.46169,-0.32179 -27.91764,4.37056 -12.65328,5.67845 -25.879,18.24549 -32.09292,30.49462 -6.32386,12.46579 -8.53835,27.02249 -7.6428,50.23893 1.00218,25.98054 5.48145,37.70376 20.45567,53.53679 14.19656,15.01077 28.49273,21.09617 49.31336,20.99103 20.1841,-0.10194 29.88123,-4.1476 45.3833,-18.93411 8.17365,-7.79631 12.34719,-10.48689 15.55822,-10.03001 8.14117,1.15838 6.38318,7.03627 -5.58553,18.67549 -21.03945,20.46024 -44.89699,27.88738 -72.31408,22.51222 z m 180.32849,-0.87264 c -58.91007,-15.85906 -71.23224,-94.36074 -19.9598,-127.1594 19.995,-12.79065 44.5509,-15.04152 67.8525,-6.21959 15.6678,5.93181 32.757,22.99516 38.7996,38.74094 6.0005,15.63624 6.1292,37.49116 0.3085,52.38396 -12.9616,33.16362 -51.4078,51.83598 -87.0008,42.25409 z m 44.1337,-15.81529 c 11.8878,-5.24659 22.5573,-15.45569 28.9123,-27.66487 3.9928,-7.67088 4.948,-12.17791 5.0192,-23.68421 0.1444,-23.31834 -10.9223,-41.51106 -32.0673,-52.71607 -8.0971,-4.29081 -11.8137,-5.02141 -25.5789,-5.02831 -19.0164,-0.009 -29.1031,3.79236 -42.2761,15.93482 -26.61772,24.53541 -21.8338,70.04853 9.3912,89.34673 16.4142,10.14454 38.8304,11.65424 56.5996,3.81191 z m 142.8883,16.27857 c -19.6867,-5.56539 -36.05,-19.71301 -45.0837,-38.97921 -4.3514,-9.2801 -4.993,-13.08321 -4.993,-29.59581 0,-16.79369 0.6082,-20.26334 5.3506,-30.52495 6.6954,-14.4876 19.6402,-27.37114 34.4389,-34.27598 9.648,-4.50162 13.8057,-5.30433 27.4737,-5.30433 19.6386,0 32.9824,5.40897 46.3695,18.79613 4.7727,4.77266 9.0815,8.67755 9.5751,8.67755 0.4936,0 0.8975,-15.77368 0.8975,-35.05263 l 0,-35.052625 -9.1116,0 c -11.2161,0 -17.4511,-3.85792 -14.3661,-8.88903 1.7729,-2.89136 4.7333,-3.42676 18.9474,-3.42676 l 16.8461,0 0.9474,88.105255 0.9473,88.10527 9.9308,0.99839 c 11.7522,1.18154 17.6837,5.63435 13.7765,10.34224 -2.0091,2.42088 -5.842,2.8994 -19.732,2.46351 l -17.2384,-0.54098 -0.5683,-10.89474 c -0.3125,-5.9921 -1.0193,-10.89474 -1.5706,-10.89474 -0.5513,0 -4.7809,3.77855 -9.3992,8.39676 -16.6457,16.6457 -41.9079,23.63315 -63.4379,17.54668 z m 41.8181,-16.3901 c 11.4854,-5.76221 20.155,-14.25126 26.2043,-25.6586 4.3615,-8.22454 5.0239,-11.72215 5.0239,-26.52632 0,-14.85022 -0.6591,-18.30637 -5.1034,-26.76003 -16.568,-31.51484 -53.4267,-40.00912 -85.4546,-19.69346 -7.1699,4.54796 -10.1641,8.10608 -14.0068,16.64529 -6.4511,14.33521 -8.009,35.82751 -3.5665,49.20258 5.2745,15.88004 21.2455,31.40509 37.3778,36.33423 10.1278,3.09449 29.8114,1.32973 39.5253,-3.54369 z m 153.9486,15.94008 c -14.7239,-3.96481 -24.5267,-9.57524 -34.9602,-20.00872 -27.5224,-27.52242 -28.5348,-71.40652 -2.2535,-97.68777 25.9282,-25.92824 70.3952,-28.24707 100.5543,-5.24363 12.9092,9.84636 25.2371,34.45361 25.2371,50.3749 l 0,7.28233 -65.3684,0 -65.3685,0 0,5.31219 c 0,13.99747 18.0736,36.63554 35.3502,44.27777 19.5878,8.66462 49.6456,5.86084 74.8451,-6.98151 13.0132,-6.63189 18.6469,-6.94967 18.6469,-1.05181 0,11.32458 -38.5837,26.74057 -66.3158,26.4963 -5.7316,-0.0506 -14.8968,-1.29702 -20.3672,-2.77005 z m 73.4198,-82.39638 c 0,-6.668 -5.1175,-16.46167 -13.1621,-25.18905 -19.6148,-21.27953 -58.3688,-24.30381 -81.9225,-6.39305 -9.0071,6.84913 -20.4944,24.27286 -20.4944,31.08546 l 0,4.34697 57.7895,0 c 56.8308,0 57.7895,-0.0639 57.7895,-3.85033 z M 223.06776,275.62166 c -32.24157,-13.57143 -48.67624,-41.18012 -48.72948,-81.86088 -0.035,-26.73406 8.05813,-48.78739 23.61186,-64.34112 28.34894,-28.34893 77.85607,-28.34893 106.20501,0 15.55372,15.55373 23.64685,37.60706 23.61185,64.34112 -0.0496,37.91189 -14.95834,65.29032 -43.09657,79.14275 -11.24276,5.53477 -14.54987,6.24098 -31.61335,6.75064 -16.68929,0.49849 -20.41537,-0.002 -29.98932,-4.03251 z m 38.62741,-22.27138 c 7.82513,-1.67819 11.76331,-4.00087 18.92293,-11.1605 12.61374,-12.61373 17.75967,-29.3458 16.39364,-53.30404 -2.05512,-36.04398 -20.92502,-56.67471 -49.65808,-54.29194 -28.26881,2.34427 -44.45835,27.59555 -42.26916,65.92835 1.8577,32.52818 17.98064,52.38343 44.45383,54.74446 1.25134,0.1116 6.72192,-0.75075 12.15684,-1.91633 z m 265.98907,24.57837 c -20.65159,-4.81382 -31.97474,-21.2619 -35.02684,-50.88018 -2.26166,-21.94761 -2.49171,-155.323395 -0.27396,-158.821235 1.79949,-2.83813 13.33552,-5.90811 22.45472,-5.97567 l 6.10129,-0.0452 0.53028,24.1579 0.5303,24.157885 30.3158,0.94737 30.31579,0.94737 0,11.36842 0,11.36842 -30.31579,0.94737 -30.3158,0.94737 -0.51192,41.67339 c -0.57933,47.16047 0.97468,58.86703 9.00792,67.85778 4.92211,5.50882 6.39232,6.00837 19.65375,6.67804 9.81029,0.4954 17.12242,-0.22642 23.17065,-2.28725 4.86034,-1.65609 9.49748,-2.60286 10.30475,-2.10393 0.80727,0.49892 2.51001,5.25168 3.78387,10.5617 1.90949,7.95965 1.85976,10.10728 -0.28331,12.23335 -6.97539,6.92005 -41.17242,10.52556 -59.4415,6.2671 z M 0.45312096,196.28066 0.94736846,116.24969 18.000001,112.88173 c 10.379826,-2.05006 26.691134,-3.4601 41.684214,-3.60342 21.329218,-0.20389 26.113063,0.3343 35.681616,4.01422 19.462079,7.48482 30.400789,20.95618 35.135349,43.27025 1.29711,6.1133 2.1304,31.49649 2.1304,64.89474 l 0,54.85411 -14.02094,0 -14.02093,0 -0.82949,-55.42106 c -0.85729,-57.27883 -1.53,-62.53418 -9.462553,-73.92333 -6.718457,-9.64601 -13.489391,-11.82197 -36.508188,-11.73253 -11.463159,0.0445 -22.334213,0.65725 -24.157897,1.36159 -3.070219,1.18576 -3.31579,6.18496 -3.31579,67.50089 0,36.42117 -0.517538,67.56898 -1.150085,69.21736 -0.90543,2.35952 -4.134293,2.99708 -15.178458,2.99708 l -14.02837544,0 0.4942474,-80.03097 z m 371.36821904,0.95384 0.49447,-79.07713 12.31579,-3.35683 c 19.82357,-5.40317 44.43931,-7.52224 60.65898,-5.22188 18.29537,2.59476 19.39726,3.74121 16.38593,17.04875 -2.14493,9.47885 -2.77938,10.36299 -7.01731,9.77882 -12.91507,-1.78027 -46.6708,-0.95214 -50.60654,1.24152 l -4.26316,2.37615 0,68.14386 0,68.14387 -14.23132,0 -14.23131,0 0.49447,-79.07713 z M 622.812,275.12359 c -0.73605,-0.73605 -1.33827,-54.38124 -1.33827,-119.21154 0,-92.045695 0.51895,-118.279895 2.36842,-119.729065 2.71057,-2.12391 25.58783,-6.02036 27.00817,-4.60004 0.51656,0.51657 0.9392,19.23526 0.9392,41.5971 l 0,40.657895 6.15789,-1.32745 c 25.76109,-5.5533 46.66937,-4.67052 63.26654,2.6712 10.69519,4.73098 16.44795,9.66795 22.72131,19.49919 8.72359,13.6711 10.38213,25.21882 11.52964,80.27656 0.589,28.26045 0.50781,53.62624 -0.18038,56.36841 -1.21028,4.82196 -1.71155,4.98578 -15.2553,4.98578 l -14.00389,0 -0.77644,-55.42106 c -0.93373,-66.64843 -2.51945,-73.37982 -19.4549,-82.58543 -6.31671,-3.43358 -36.93782,-3.95468 -47.37289,-0.80617 l -5.68421,1.71505 -0.94737,68.07512 -0.94737,68.07512 -13.34594,0.54881 c -7.34027,0.30183 -13.94816,-0.0534 -14.68421,-0.78948 z"
     id="path4144"
     inkscape:connector-curvature="0" />
  <path
     style="fill:#000000"
     d=""
     id="path4140"
     inkscape:connector-curvature="0" />
  <path
     style="fill:none;fill-opacity:1"
     d="m 864.00007,251.81442 c -30.90515,-6.03559 -60.40783,-36.20751 -66.30579,-67.80987 -2.4497,-13.12596 -2.44732,-42.3105 0.004,-55.23889 5.65158,-29.800635 27.35153,-55.255594 53.98551,-63.327243 12.30935,-3.730453 34.60817,-3.697985 47.56703,0.06925 5.64052,1.639747 14.51122,5.845247 19.71266,9.345555 l 9.45786,6.364204 0,-5.177134 c 0,-6.337959 3.11758,-9.724502 8.95216,-9.724502 6.33151,0 8.10047,6.440362 8.10047,29.491769 0,17.245079 -0.4842,20.255599 -3.78947,23.560869 -2.08421,2.08421 -4.47914,3.78947 -5.32207,3.78947 -3.58532,0 -7.48188,-5.3096 -9.73344,-13.26316 -7.47526,-26.406222 -49.00938,-38.893707 -78.75824,-23.679158 -14.6729,7.504199 -25.98342,21.320538 -31.15162,38.053178 -5.31542,17.20935 -5.3705,46.75644 -0.11861,63.5843 9.64828,30.91413 38.96117,51.2097 69.8026,48.32968 15.68973,-1.46514 25.77038,-6.45582 41.09878,-20.34704 6.79983,-6.16226 12.8287,-11.20411 13.39748,-11.20411 3.92345,0 8.36399,4.62772 8.36399,8.71654 0,6.6762 -17.3098,23.55772 -31.43223,30.65455 -18.2113,9.15156 -34.71038,11.54585 -53.83093,7.81174 z m 37.89474,-5.88839 c 12.66219,-3.86134 24.4473,-10.97483 33.98706,-20.51458 17.02462,-17.02463 10.29922,-21.42125 -7.5249,-4.91927 -16.90891,15.65466 -25.62779,19.19204 -47.30426,19.19204 -15.48912,0 -19.4854,-0.69649 -28.64845,-4.99296 -19.08218,-8.94742 -34.49723,-26.586 -40.48516,-46.32492 -4.25416,-14.0236 -3.86587,-52.11695 0.67143,-65.87043 6.48406,-19.65444 19.32103,-34.028499 38.04522,-42.600725 14.00067,-6.409715 33.86204,-6.537683 50.31169,-0.324163 14.95382,5.648497 28.78384,19.3691 30.5299,30.288328 1.54378,9.65422 7.21758,10.71901 9.02274,1.69329 1.53254,-7.66268 1.52231,-27.914745 -0.0171,-35.61618 -1.67262,-8.363016 -7.11241,-7.153897 -7.93293,1.763269 -0.84312,9.162923 -3.20328,10.948406 -8.36613,6.329052 -17.44721,-15.609725 -46.22431,-21.653765 -69.78737,-14.657216 -35.11158,10.42564 -54.77984,41.975235 -54.79229,87.891595 -0.008,29.17301 7.02066,48.61937 24.04393,66.52374 21.00522,22.09243 50.77681,30.51601 78.24657,22.13913 z m 142.58019,5.04108 c -14.5464,-3.91701 -23.3954,-8.97997 -33.3589,-19.08616 -28.04748,-28.44938 -28.00543,-74.06078 0.094,-102.16041 34.7259,-34.72594 96.9039,-25.53628 118.7368,17.54883 28.902,57.03537 -23.3476,120.42641 -85.4721,103.69774 z m 31.8121,-2.77107 c 38.0533,-7.21667 62.469,-40.52276 56.6572,-77.28777 -9.1007,-57.57051 -81.3036,-78.677339 -120.9075,-35.34444 -12.2375,13.38983 -17.29987,26.67015 -17.29987,45.38354 0,18.71341 5.06237,31.99372 17.29987,45.38354 10.4674,11.453 24.6469,19.39864 38.88,21.78686 13.0868,2.19588 14.1862,2.19928 25.3703,0.0782 z m -35.6185,-11.5909 c -12.2426,-4.70513 -26.4456,-18.15711 -32.7583,-31.02619 -3.7678,-7.68124 -4.6417,-12.34157 -4.6187,-24.63158 0.036,-19.07813 4.868,-30.50395 18.1916,-43.01289 38.7381,-36.36969 103.9906,-9.37979 103.9906,43.01289 0,41.92475 -44.517,71.14135 -84.8052,55.65777 z m 40.7585,-2.64178 c 32.4924,-9.64919 48.8684,-46.814 33.9838,-77.12509 -19.3832,-39.47231 -75.8581,-42.61925 -99.6438,-5.55243 -28.05232,43.71576 14.8687,97.76092 65.66,82.67752 z m 148.2572,17.02526 c -21.7878,-6.02809 -42.2807,-26.2642 -48.5957,-47.9867 -4.1392,-14.2384 -2.8021,-39.67448 2.7359,-52.04729 12.8127,-28.62562 41.7911,-45.50403 72.5974,-42.28415 15.216,1.59039 26.0199,6.60298 37.6214,17.45479 l 9.5358,8.91961 0,-32.46981 0,-32.469805 -8.6509,0 c -10.7941,0 -15.9807,-2.665921 -15.9807,-8.214033 0,-7.537519 3.4027,-8.838599 23.1158,-8.838599 l 18.5684,0 0,89.052637 0,89.05263 8.0526,0.0279 c 9.9962,0.0347 17.3487,3.57514 18.0915,8.71162 1.0052,6.95101 -3.5932,8.49351 -23.5816,7.91035 l -18.6678,-0.54456 -0.5777,-10.09277 -0.5778,-10.09276 -8.564,7.8941 c -17.5981,16.22126 -42.3661,22.31297 -65.1226,16.01688 z m 46.8191,-8.57145 c 7.5501,-3.68189 14.7818,-9.18506 20.1814,-15.35762 4.7326,-5.40999 9.326,-9.05656 10.4967,-8.333 1.1639,0.7193 2.0818,6.6676 2.0818,13.49055 l 0,12.20396 16.1052,0 c 14.7109,0 16.1053,-0.32027 16.1053,-3.69906 0,-3.21419 -1.5523,-3.773 -11.8421,-4.26315 l -11.8421,-0.56411 -0.4923,-89.52631 -0.4922,-89.526323 -16.1462,0 c -12.8048,0 -16.3783,0.605064 -17.2681,2.923822 -1.6562,4.316006 -0.025,5.110869 13.0527,6.36171 l 11.8724,1.135521 0.5158,36.80954 c 0.3655,26.08464 -0.1158,37.19985 -1.6518,38.14918 -1.2768,0.78908 -6.9397,-3.51259 -13.779,-10.46677 -14.1492,-14.38697 -25.5948,-19.06831 -45.7166,-18.69847 -22.5554,0.41458 -40.6612,9.95794 -52.9991,27.93524 -39.3566,57.34567 20.3734,131.38942 81.8182,101.42529 z m -43.0419,-3.55591 c -20.7631,-6.31588 -35.2959,-21.9324 -40.9505,-44.00447 -3.3037,-12.89554 -2.5057,-22.9929 3.08,-38.97479 5.1923,-14.85646 10.1095,-20.4239 24.1714,-27.36817 11.6008,-5.72885 14.3181,-6.3033 29.8167,-6.3033 15.335,0 18.0677,0.56231 27.1304,5.58266 11.2523,6.23324 19.0651,14.28257 25.4369,26.20686 3.6182,6.77128 4.2748,10.90999 4.2748,26.94732 0,22.08614 -3.0919,29.91227 -17.2556,43.67782 -13.7443,13.35801 -38.1152,19.58637 -55.7041,14.23607 z m 34.9724,-5.93672 c 46.6419,-17.45099 46.5335,-86.42359 -0.1637,-104.05312 -14.9544,-5.64571 -29.6873,-4.56587 -45.2415,3.31597 -13.8502,7.01828 -18.0421,11.5385 -23.4946,25.33475 -5.8132,14.70865 -5.7626,34.60045 0.119,46.75 12.7742,26.38798 42.1386,38.62049 68.7807,28.6524 z m 159.2504,18.42404 c -47.7163,-12.48414 -72.5672,-63.2045 -51.4173,-104.94182 6.3668,-12.56442 23.1381,-27.60077 36.7394,-32.93897 15.6802,-6.15409 44.3036,-6.20349 59.5863,-0.10285 22.1954,8.8601 41.3968,32.45357 41.1232,50.5298 l -0.1434,9.47368 -2.3527,-9.69441 c -8.7972,-36.24989 -44.9519,-57.57193 -83.7155,-49.37079 -33.3329,7.05217 -54.2434,32.08025 -54.097,64.74942 0.033,7.29473 1.3151,16.78943 2.8499,21.09931 12.1805,34.20484 47.9233,54.12438 86.2012,48.04 24.4119,-3.88033 49.5417,-14.88047 49.5417,-21.68595 0,-5.21719 -3.6417,-4.83171 -15.5051,1.6412 -17.2929,9.43541 -33.1825,13.05345 -52.7054,12.00093 -18.8619,-1.01689 -29.2028,-5.01435 -41.7561,-16.14148 -9.3735,-8.30851 -18.5166,-24.79039 -19.3168,-34.82131 l -0.5061,-6.34323 65.8422,-0.49823 c 43.521,-0.32933 65.8421,0.15241 65.8421,1.42105 0,1.2577 -21.8798,1.91929 -63.4737,1.91929 -72.3039,0 -67.6428,-1.30522 -59.2795,16.5996 6.5503,14.02355 19.6077,25.55185 34.4654,30.42926 21.778,7.14922 41.2664,4.9386 66.9755,-7.59729 8.5993,-4.19307 16.9125,-7.1336 18.4737,-6.53451 1.7724,0.68016 2.8386,3.57668 2.8386,7.712 0,5.52697 -1.1756,7.42578 -7.1053,11.47612 -17.6648,12.06625 -58.2558,19.03409 -79.1053,13.57918 z M 225.4737,248.73723 c -11.72539,-4.07556 -27.27134,-14.62585 -33.82509,-22.95549 -13.54422,-17.21429 -19.18257,-35.12634 -19.18257,-60.93963 0,-28.59139 6.42549,-47.24946 22.21169,-64.49735 17.26926,-18.868292 42.30523,-27.259467 69.0023,-23.127145 17.65971,2.733469 32.03589,10.327773 43.69052,23.079775 15.65227,17.1261 22.25599,36.28574 22.2912,64.67451 0.0523,42.10174 -19.36357,72.35762 -53.84136,83.90166 -11.94888,4.00079 -38.6522,3.92849 -50.34669,-0.13623 z m 47.3152,-3.52853 c 25.08251,-7.4487 41.87432,-25.5696 49.63762,-53.56652 8.51995,-30.72558 1.49884,-66.60684 -17.16637,-87.72838 -27.41607,-31.023991 -80.11948,-31.384732 -107.67442,-0.737 -24.60661,27.36846 -28.64895,76.63715 -9.04272,110.21385 16.50675,28.26868 51.58537,41.51719 84.24589,31.81805 z m -34.0643,-19.49784 c -14.67885,-4.81364 -23.9882,-13.42907 -30.95106,-28.64399 -3.26307,-7.13031 -3.92337,-12.45131 -3.99888,-32.22476 -0.0796,-20.82533 0.43589,-24.82776 4.26977,-33.1579 8.94204,-19.42888 23.41702,-29.28519 43.00822,-29.28519 19.5912,0 34.06618,9.85631 43.00822,29.28519 3.81265,8.28397 4.36021,12.44798 4.36021,33.1579 0,22.26682 -0.32031,24.30787 -5.35227,34.10527 -6.62321,12.89557 -11.4729,18.22814 -21.03689,23.13142 -8.13479,4.17056 -25.79324,6.09616 -33.30732,3.63206 z m 33.68615,-9.01656 c 4.4522,-2.5812 10.22986,-8.07503 12.83921,-12.20853 15.18913,-24.06112 12.94559,-67.26772 -4.45678,-85.82995 -15.43439,-16.46309 -44.04666,-16.46309 -59.48106,0 -17.83444,19.0231 -19.7514,63.46086 -3.74593,86.83569 12.01778,17.55112 35.58954,22.36599 54.84456,11.20279 z m 250.53666,31.70921 c -13.76045,-4.86553 -24.67144,-16.69477 -29.30559,-31.77187 -2.98105,-9.69876 -3.50847,-21.34416 -4.30556,-95.06662 -0.61894,-57.245142 -0.27535,-84.646937 1.07833,-86.000623 2.20803,-2.208026 28.8709,-7.256618 31.11177,-5.890985 0.78158,0.476312 1.42105,11.878792 1.42105,25.338845 l 0,24.472822 30.78948,0.520621 30.78947,0.520618 0.5567,13.736843 0.55669,13.736839 -31.49195,0 -31.49195,0 0.64931,46.89474 c 0.72129,52.09401 1.94887,58.28152 12.66205,63.82152 7.40568,3.82963 25.10252,3.82148 38.02978,-0.0171 5.52924,-1.64202 10.68387,-2.28149 11.45473,-1.42105 1.70215,1.89997 5.70622,17.96857 5.70622,22.89952 0,9.46048 -48.25972,15.28068 -68.21053,8.22629 z m 55.5691,-4.99691 c 8.29104,-2.92934 9.03685,-3.67516 7.96105,-7.96146 -0.65285,-2.60113 -1.66458,-7.11729 -2.24831,-10.03593 l -1.06132,-5.3066 -7.84709,2.79913 c -4.31591,1.53953 -13.94644,2.87454 -21.40119,2.9667 -16.52081,0.20423 -24.504,-3.69313 -30.02487,-14.65802 -3.49933,-6.94996 -3.78947,-11.29809 -3.78947,-56.78936 l 0,-49.26316 30.78947,-0.52062 30.78948,-0.52062 0,-10.374118 0,-10.374118 -31.26316,0 -31.26316,0 0,-24.846716 0,-24.846716 -9,1.270431 c -17.38893,2.454599 -15.63158,-7.112602 -15.63158,85.099967 0,67.68022 0.50722,83.84264 2.92216,93.11422 6.67411,25.62368 23.30456,35.83122 55.81468,34.25832 8.8579,-0.42857 20.22189,-2.23367 25.25331,-4.01133 z M 1.894737,246.39549 c 0,-1.16691 5.0369931,-1.97443 12.315791,-1.97443 l 12.31579,0 0,-67.97853 c 0,-60.91572 0.325474,-68.2487 3.132643,-70.57895 2.289655,-1.90065 9.555298,-2.60042 27.000002,-2.60042 29.339889,0 34.83006,2.4808 43.197032,19.51911 l 5.301905,10.79668 0.6238,55.42106 0.6238,55.42105 12.32815,0 12.32814,0 -0.77594,-59.21053 C 129.38138,116.19261 128.8293,113.42426 112.76659,97.36155 98.621932,83.216892 88.821803,80.71435 53.052636,82.113102 37.942108,82.703998 20.250002,84.401432 13.736843,85.885178 4.4640754,87.997582 1.894737,88.0707 1.894737,86.222176 c 0,-2.917508 15.196623,-6.024913 41.784836,-8.544161 23.413642,-2.218456 45.896624,-0.01944 57.558057,5.629662 16.34088,7.915934 27.57254,23.489453 31.36573,43.490833 1.05763,5.57688 1.92297,35.17603 1.92297,65.7759 l 0,55.63612 -16.10527,0 -16.10526,0 -0.0395,-49.73684 c -0.0515,-64.92727 -2.610243,-77.64829 -17.431007,-86.66133 -8.246035,-5.01471 -18.322095,-6.33041 -36.734528,-4.79666 l -15.853903,1.32062 -0.496855,69.46342 -0.496856,69.46343 -14.684212,0.55337 C 7.3034364,248.1661 1.894737,247.64268 1.894737,246.39549 Z m 368.032313,-78.99172 0.49403,-80.806756 12.31579,-3.419919 c 19.67757,-5.464179 46.24538,-7.799106 62.59529,-5.501224 23.18293,3.258218 22.68118,2.656726 18.18307,21.797817 -2.1055,8.959742 -2.53248,9.443492 -7.87073,8.917152 -13.18283,-1.29979 -43.94494,-1.22474 -48.74973,0.11895 l -5.21053,1.45715 0,69.1218 0,69.12179 -16.12561,0 -16.1256,0 0.49402,-80.80676 z m 27.96772,8.87343 0,-68.14387 4.26316,-2.37209 c 4.69813,-2.61412 42.57485,-3.44732 50.84862,-1.11855 4.71414,1.32686 4.97423,0.97677 6.81364,-9.171369 1.64045,-9.05037 1.48233,-10.728618 -1.11175,-11.800579 -1.66332,-0.687327 -15.81367,-1.16921 -31.44525,-1.07085 -22.09155,0.139017 -31.16383,0.989206 -40.73684,3.817595 l -12.31579,3.638759 -0.49495,77.182404 -0.49492,77.18241 12.33703,0 12.33705,0 0,-68.14386 z m 221.68423,-49.98244 0,-122.0633147 4.26316,-1.1424823 c 2.34473,-0.628365 10.01842,-1.1541244 17.05263,-1.168354 l 12.78948,-0.025872 0,40.0104601 0,40.010462 4.26315,-1.180082 c 32.01685,-8.862566 68.49414,-1.914994 83.13468,15.834076 3.03667,3.681427 7.40823,11.382987 9.71456,17.114557 3.9776,9.88487 4.22538,13.61379 4.81576,72.47369 l 0.62238,62.05263 -16.05418,0 -16.05418,0 -0.70172,-56.36842 c -0.60781,-48.82683 -1.15079,-57.38242 -4.05843,-63.94737 -8.24663,-18.61953 -21.88296,-24.12372 -49.56291,-20.00563 l -16.07226,2.39116 -0.4971,68.49145 -0.49712,68.49145 -16.57895,0.54744 -16.57895,0.54747 0,-122.06332 z m 30.76585,49.44209 0.49731,-68.68421 11.36842,-2.41684 c 6.25263,-1.32925 17.84875,-2.11711 25.76913,-1.7508 19.06821,0.8819 26.84933,5.52594 33.68626,20.10507 4.94886,10.55305 4.96777,10.7764 5.58947,66.00994 l 0.62381,55.42105 12.30842,0 12.30842,0 -0.67923,-59.21053 c -0.64574,-56.2931 -0.89141,-59.74338 -4.98573,-70.02512 -5.51761,-13.85587 -19.37185,-26.79091 -33.04327,-30.850881 -12.35753,-3.669794 -39.71367,-3.690542 -51.74983,-0.03924 -5.11562,1.551877 -9.94061,2.830824 -10.72219,2.842106 -0.78158,0.01137 -1.42105,-18.834199 -1.42105,-41.87884 l 0,-41.8993468 -9,1.2984765 c -4.95,0.714162 -10.91842,1.7560367 -13.26316,2.3152772 l -4.26316,1.0167952 0,118.2156529 0,118.21565 13.23953,0 13.23952,0 0.49733,-68.68421 z m 732.04865,-4.91466 c -3.5819,-5.79563 10.0662,-29.61298 21.8683,-38.16234 24.3759,-17.6578 66.5162,-14.1608 85.154,7.06649 7.302,8.31652 15.7752,26.06104 14.2911,29.92845 -0.8995,2.34412 -10.1617,2.76627 -60.6934,2.76627 -32.7975,0 -60.0765,-0.71949 -60.62,-1.59887 z m 116.3257,-5.5064 c -0.033,-6.17848 -11.4168,-23.23469 -19.3362,-28.97145 -22.9857,-16.65077 -59.1291,-14.15606 -78.7185,5.43337 -6.2501,6.25008 -13.5858,19.38448 -13.6754,24.48545 -0.032,1.84216 12.3783,2.36842 55.8531,2.36842 51.9767,0 55.8935,-0.23242 55.877,-3.31579 z"
     id="path3338"
     inkscape:connector-curvature="0" />
</svg>
