<?xml version="1.0" encoding="UTF-8" standalone="no"?>
<!-- Created with Inkscape (http://www.inkscape.org/) -->
<svg xmlns:rdf="http://www.w3.org/1999/02/22-rdf-syntax-ns#" xmlns="http://www.w3.org/2000/svg" height="318.32" viewBox="0 0 1515.7896 318.3158" width="1515.8" version="1.1" xmlns:cc="http://creativecommons.org/ns#" xmlns:dc="http://purl.org/dc/elements/1.1/">
<metadata>
<rdf:RDF>
<cc:Work rdf:about="">
<dc:format>image/svg+xml</dc:format>
<dc:type rdf:resource="http://purl.org/dc/dcmitype/StillImage"/>
<dc:title/>
</cc:Work>
</rdf:RDF>
</metadata>
<path fill-opacity=".94118" fill="#ff492d" d="m864.09 279.93c-29.432-5.7701-58.811-35.805-64.487-65.927-2.8204-14.966-2.3474-45.159 0.90301-57.638 6.5833-25.275 22.8-46.141 43.173-55.552 10.616-4.9036 13.771-5.4458 31.684-5.4458 17.823 0 21.073 0.55181 31.212 5.299 6.2244 2.9145 12.619 6.471 14.211 7.9034 5.2172 4.6959 8.3074 4.1607 9.4197-1.6314 1.4803-7.7081 7.0398-10.843 10.637-5.9984 3.6652 4.9358 3.851 40.487 0.23746 45.429-4.1008 5.6082-9.1451 2.947-11.86-6.2567-3.0099-10.205-11.959-19.818-24.489-26.303-7.4032-3.8317-13.042-5.085-25.8-5.7347-14.727-0.74993-17.462-0.32179-27.918 4.3706-12.653 5.6784-25.879 18.245-32.093 30.495-6.3239 12.466-8.5384 27.022-7.6428 50.239 1.0022 25.981 5.4814 37.704 20.456 53.537 14.197 15.011 28.493 21.096 49.313 20.991 20.184-0.10194 29.881-4.1476 45.383-18.934 8.1736-7.7963 12.347-10.487 15.558-10.03 8.1412 1.1584 6.3832 7.0363-5.5855 18.675-21.039 20.46-44.897 27.887-72.314 22.512zm180.33-0.87264c-58.91-15.859-71.232-94.361-19.96-127.16 19.995-12.791 44.551-15.042 67.852-6.2196 15.668 5.9318 32.757 22.995 38.8 38.741 6.0005 15.636 6.1292 37.491 0.3085 52.384-12.962 33.164-51.408 51.836-87.001 42.254zm44.134-15.815c11.888-5.2466 22.557-15.456 28.912-27.665 3.9928-7.6709 4.948-12.178 5.0192-23.684 0.1444-23.318-10.922-41.511-32.067-52.716-8.0971-4.2908-11.814-5.0214-25.579-5.0283-19.016-0.009-29.103 3.7924-42.276 15.935-26.618 24.535-21.834 70.049 9.3912 89.347 16.414 10.145 38.83 11.654 56.6 3.8119zm142.89 16.279c-19.687-5.5654-36.05-19.713-45.084-38.979-4.3514-9.2801-4.993-13.083-4.993-29.596 0-16.794 0.6082-20.263 5.3506-30.525 6.6954-14.488 19.64-27.371 34.439-34.276 9.648-4.5016 13.806-5.3043 27.474-5.3043 19.639 0 32.982 5.409 46.37 18.796 4.7727 4.7727 9.0815 8.6776 9.5751 8.6776s0.8975-15.774 0.8975-35.053v-35.053h-9.1116c-11.216 0-17.451-3.8579-14.366-8.889 1.7729-2.8914 4.7333-3.4268 18.947-3.4268h16.846l0.9474 88.105 0.9473 88.105 9.9308 0.99839c11.752 1.1815 17.684 5.6344 13.776 10.342-2.0091 2.4209-5.842 2.8994-19.732 2.4635l-17.238-0.54098-0.5683-10.895c-0.3125-5.9921-1.0193-10.895-1.5706-10.895s-4.7809 3.7786-9.3992 8.3968c-16.646 16.646-41.908 23.633-63.438 17.547zm41.818-16.39c11.485-5.7622 20.155-14.251 26.204-25.659 4.3615-8.2245 5.0239-11.722 5.0239-26.526 0-14.85-0.6591-18.306-5.1034-26.76-16.568-31.515-53.427-40.009-85.455-19.693-7.1699 4.548-10.164 8.1061-14.007 16.645-6.4511 14.335-8.009 35.828-3.5665 49.203 5.2745 15.88 21.246 31.405 37.378 36.334 10.128 3.0945 29.811 1.3297 39.525-3.5437zm153.95 15.94c-14.724-3.9648-24.527-9.5752-34.96-20.009-27.522-27.522-28.535-71.407-2.2535-97.688 25.928-25.928 70.395-28.247 100.55-5.2436 12.909 9.8464 25.237 34.454 25.237 50.375v7.2823h-65.368-65.368v5.3122c0 13.997 18.074 36.636 35.35 44.278 19.588 8.6646 49.646 5.8608 74.845-6.9815 13.013-6.6319 18.647-6.9497 18.647-1.0518 0 11.325-38.584 26.741-66.316 26.496-5.7316-0.0506-14.897-1.297-20.367-2.77zm73.42-82.396c0-6.668-5.1175-16.462-13.162-25.189-19.615-21.28-58.369-24.304-81.922-6.393-9.0071 6.8491-20.494 24.273-20.494 31.085v4.347h57.79c56.831 0 57.79-0.0639 57.79-3.8503zm-1277.5 78.95c-32.242-13.571-48.676-41.18-48.729-81.861-0.035-26.734 8.0581-48.787 23.612-64.341 28.349-28.349 77.856-28.349 106.21 0 15.554 15.554 23.647 37.607 23.612 64.341-0.0496 37.912-14.958 65.29-43.097 79.143-11.243 5.5348-14.55 6.241-31.613 6.7506-16.689 0.49849-20.415-0.002-29.989-4.0325zm38.627-22.271c7.8251-1.6782 11.763-4.0009 18.923-11.16 12.614-12.614 17.76-29.346 16.394-53.304-2.0551-36.044-20.925-56.675-49.658-54.292-28.269 2.3443-44.458 27.596-42.269 65.928 1.8577 32.528 17.981 52.383 44.454 54.744 1.2513 0.1116 6.7219-0.75075 12.157-1.9163zm265.99 24.578c-20.652-4.8138-31.975-21.262-35.027-50.88-2.2617-21.948-2.4917-155.32-0.27396-158.82 1.7995-2.8381 13.336-5.9081 22.455-5.9757l6.1013-0.0452 0.53028 24.158 0.5303 24.158 30.316 0.94737 30.316 0.94737v11.368 11.368l-30.316 0.94737-30.316 0.94737-0.51192 41.673c-0.57933 47.16 0.97468 58.867 9.0079 67.858 4.9221 5.5088 6.3923 6.0084 19.654 6.678 9.8103 0.4954 17.122-0.22642 23.171-2.2872 4.8603-1.6561 9.4975-2.6029 10.305-2.1039 0.80727 0.49892 2.51 5.2517 3.7839 10.562 1.9095 7.9596 1.8598 10.107-0.28331 12.233-6.9754 6.92-41.172 10.526-59.442 6.2671zm-527.24-81.65 0.49425-80.03 17.053-3.37c10.38-2.0501 26.691-3.4601 41.684-3.6034 21.329-0.20389 26.113 0.3343 35.682 4.0142 19.462 7.4848 30.401 20.956 35.135 43.27 1.2971 6.1133 2.1304 31.496 2.1304 64.895v54.854h-14.021-14.021l-0.82949-55.421c-0.85729-57.279-1.53-62.534-9.4626-73.923-6.7185-9.646-13.489-11.822-36.508-11.733-11.463 0.0445-22.334 0.65725-24.158 1.3616-3.0702 1.1858-3.3158 6.185-3.3158 67.501 0 36.421-0.51754 67.569-1.1501 69.217-0.90543 2.3595-4.1343 2.9971-15.178 2.9971h-14.028l0.49425-80.031zm371.37 0.95384 0.49447-79.077 12.316-3.3568c19.824-5.4032 44.439-7.5222 60.659-5.2219 18.295 2.5948 19.397 3.7412 16.386 17.049-2.1449 9.4788-2.7794 10.363-7.0173 9.7788-12.915-1.7803-46.671-0.95214-50.607 1.2415l-4.2632 2.3762v68.144 68.144h-14.231-14.231l0.49447-79.077zm250.99 77.89c-0.73605-0.73605-1.3383-54.381-1.3383-119.21 0-92.046 0.51895-118.28 2.3684-119.73 2.7106-2.1239 25.588-6.0204 27.008-4.6 0.51656 0.51657 0.9392 19.235 0.9392 41.597v40.658l6.1579-1.3274c25.761-5.5533 46.669-4.6705 63.267 2.6712 10.695 4.731 16.448 9.668 22.721 19.499 8.7236 13.671 10.382 25.219 11.53 80.277 0.589 28.26 0.50781 53.626-0.18038 56.368-1.2103 4.822-1.7116 4.9858-15.255 4.9858h-14.004l-0.77644-55.421c-0.93373-66.648-2.5194-73.38-19.455-82.585-6.3167-3.4336-36.938-3.9547-47.373-0.80617l-5.6842 1.715-0.94737 68.075-0.94737 68.075-13.346 0.54881c-7.3403 0.30183-13.948-0.0534-14.684-0.78948z"/>
<path fill="none" d="m864 251.81c-30.905-6.0356-60.408-36.208-66.306-67.81-2.4497-13.126-2.4473-42.31 0.004-55.239 5.6516-29.801 27.352-55.256 53.986-63.327 12.309-3.7305 34.608-3.698 47.567 0.06925 5.6405 1.6397 14.511 5.8452 19.713 9.3456l9.4579 6.3642v-5.1771c0-6.338 3.1176-9.7245 8.9522-9.7245 6.3315 0 8.1005 6.4404 8.1005 29.492 0 17.245-0.4842 20.256-3.7895 23.561-2.0842 2.0842-4.4791 3.7895-5.3221 3.7895-3.5853 0-7.4819-5.3096-9.7334-13.263-7.4753-26.406-49.009-38.894-78.758-23.679-14.673 7.5042-25.983 21.321-31.152 38.053-5.3154 17.209-5.3705 46.756-0.11861 63.584 9.6483 30.914 38.961 51.21 69.803 48.33 15.69-1.4651 25.77-6.4558 41.099-20.347 6.7998-6.1623 12.829-11.204 13.397-11.204 3.9234 0 8.364 4.6277 8.364 8.7165 0 6.6762-17.31 23.558-31.432 30.655-18.211 9.1516-34.71 11.546-53.831 7.8117zm37.895-5.8884c12.662-3.8613 24.447-10.975 33.987-20.515 17.025-17.025 10.299-21.421-7.5249-4.9193-16.909 15.655-25.628 19.192-47.304 19.192-15.489 0-19.485-0.69649-28.648-4.993-19.082-8.9474-34.497-26.586-40.485-46.325-4.2542-14.024-3.8659-52.117 0.67143-65.87 6.4841-19.654 19.321-34.028 38.045-42.601 14.001-6.4097 33.862-6.5377 50.312-0.32416 14.954 5.6485 28.784 19.369 30.53 30.288 1.5438 9.6542 7.2176 10.719 9.0227 1.6933 1.5325-7.6627 1.5223-27.915-0.0171-35.616-1.6726-8.363-7.1124-7.1539-7.9329 1.7633-0.84312 9.1629-3.2033 10.948-8.3661 6.3291-17.447-15.61-46.224-21.654-69.787-14.657-35.112 10.426-54.78 41.975-54.792 87.892-0.008 29.173 7.0207 48.619 24.044 66.524 21.005 22.092 50.777 30.516 78.247 22.139zm142.58 5.0411c-14.546-3.917-23.395-8.98-33.359-19.086-28.047-28.449-28.005-74.061 0.094-102.16 34.726-34.726 96.904-25.536 118.74 17.549 28.902 57.035-23.348 120.43-85.472 103.7zm31.812-2.7711c38.053-7.2167 62.469-40.523 56.657-77.288-9.1007-57.571-81.304-78.677-120.91-35.344-12.238 13.39-17.3 26.67-17.3 45.384 0 18.713 5.0624 31.994 17.3 45.384 10.467 11.453 24.647 19.399 38.88 21.787 13.087 2.1959 14.186 2.1993 25.37 0.0782zm-35.618-11.591c-12.243-4.7051-26.446-18.157-32.758-31.026-3.7678-7.6812-4.6417-12.342-4.6187-24.632 0.036-19.078 4.868-30.504 18.192-43.013 38.738-36.37 103.99-9.3798 103.99 43.013 0 41.925-44.517 71.141-84.805 55.658zm40.758-2.6418c32.492-9.6492 48.868-46.814 33.984-77.125-19.383-39.472-75.858-42.619-99.644-5.5524-28.052 43.716 14.869 97.761 65.66 82.678zm148.26 17.025c-21.788-6.0281-42.281-26.264-48.596-47.987-4.1392-14.238-2.8021-39.674 2.7359-52.047 12.813-28.626 41.791-45.504 72.597-42.284 15.216 1.5904 26.02 6.603 37.621 17.455l9.5358 8.9196v-32.47-32.47h-8.6509c-10.794 0-15.981-2.6659-15.981-8.214 0-7.5375 3.4027-8.8386 23.116-8.8386h18.568v89.053 89.053l8.0526 0.0279c9.9962 0.0347 17.349 3.5751 18.092 8.7116 1.0052 6.951-3.5932 8.4935-23.582 7.9104l-18.668-0.54456-0.5777-10.093-0.5778-10.093-8.564 7.8941c-17.598 16.221-42.366 22.313-65.123 16.017zm46.819-8.5714c7.5501-3.6819 14.782-9.1851 20.181-15.358 4.7326-5.41 9.326-9.0566 10.497-8.333 1.1639 0.7193 2.0818 6.6676 2.0818 13.491v12.204h16.105c14.711 0 16.105-0.32027 16.105-3.6991 0-3.2142-1.5523-3.773-11.842-4.2632l-11.842-0.56411-0.4923-89.526-0.4922-89.526h-16.146c-12.805 0-16.378 0.60506-17.268 2.9238-1.6562 4.316-0.025 5.1109 13.053 6.3617l11.872 1.1355 0.5158 36.81c0.3655 26.085-0.1158 37.2-1.6518 38.149-1.2768 0.78908-6.9397-3.5126-13.779-10.467-14.149-14.387-25.595-19.068-45.717-18.698-22.555 0.41458-40.661 9.9579-52.999 27.935-39.357 57.346 20.373 131.39 81.818 101.43zm-43.042-3.5559c-20.763-6.3159-35.296-21.932-40.95-44.004-3.3037-12.896-2.5057-22.993 3.08-38.975 5.1923-14.856 10.11-20.424 24.171-27.368 11.601-5.7288 14.318-6.3033 29.817-6.3033 15.335 0 18.068 0.56231 27.13 5.5827 11.252 6.2332 19.065 14.283 25.437 26.207 3.6182 6.7713 4.2748 10.91 4.2748 26.947 0 22.086-3.0919 29.912-17.256 43.678-13.744 13.358-38.115 19.586-55.704 14.236zm34.972-5.9367c46.642-17.451 46.534-86.424-0.1637-104.05-14.954-5.6457-29.687-4.5659-45.242 3.316-13.85 7.0183-18.042 11.538-23.495 25.335-5.8132 14.709-5.7626 34.6 0.119 46.75 12.774 26.388 42.139 38.62 68.781 28.652zm159.25 18.424c-47.716-12.484-72.567-63.204-51.417-104.94 6.3668-12.564 23.138-27.601 36.739-32.939 15.68-6.1541 44.304-6.2035 59.586-0.10285 22.195 8.8601 41.397 32.454 41.123 50.53l-0.1434 9.4737-2.3527-9.6944c-8.7972-36.25-44.952-57.572-83.716-49.371-33.333 7.0522-54.243 32.08-54.097 64.749 0.033 7.2947 1.3151 16.789 2.8499 21.099 12.18 34.205 47.923 54.124 86.201 48.04 24.412-3.8803 49.542-14.88 49.542-21.686 0-5.2172-3.6417-4.8317-15.505 1.6412-17.293 9.4354-33.182 13.053-52.705 12.001-18.862-1.0169-29.203-5.0144-41.756-16.141-9.3735-8.3085-18.517-24.79-19.317-34.821l-0.5061-6.3432 65.842-0.49823c43.521-0.32933 65.842 0.15241 65.842 1.421 0 1.2577-21.88 1.9193-63.474 1.9193-72.304 0-67.643-1.3052-59.28 16.6 6.5503 14.024 19.608 25.552 34.465 30.429 21.778 7.1492 41.266 4.9386 66.976-7.5973 8.5993-4.1931 16.912-7.1336 18.474-6.5345 1.7724 0.68016 2.8386 3.5767 2.8386 7.712 0 5.527-1.1756 7.4258-7.1053 11.476-17.665 12.066-58.256 19.034-79.105 13.579zm-1202.3-2.59c-11.725-4.0756-27.271-14.626-33.825-22.955-13.544-17.214-19.183-35.126-19.183-60.94 0-28.591 6.4255-47.249 22.212-64.497 17.269-18.868 42.305-27.259 69.002-23.127 17.66 2.7335 32.036 10.328 43.691 23.08 15.652 17.126 22.256 36.286 22.291 64.675 0.0523 42.102-19.364 72.358-53.841 83.902-11.949 4.0008-38.652 3.9285-50.347-0.13623zm47.315-3.5285c25.083-7.4487 41.874-25.57 49.638-53.567 8.52-30.726 1.4988-66.607-17.166-87.728-27.416-31.024-80.119-31.385-107.67-0.737-24.607 27.368-28.649 76.637-9.0427 110.21 16.507 28.269 51.585 41.517 84.246 31.818zm-34.064-19.498c-14.679-4.8136-23.988-13.429-30.951-28.644-3.2631-7.1303-3.9234-12.451-3.9989-32.225-0.0796-20.825 0.43589-24.828 4.2698-33.158 8.942-19.429 23.417-29.285 43.008-29.285s34.066 9.8563 43.008 29.285c3.8126 8.284 4.3602 12.448 4.3602 33.158 0 22.267-0.32031 24.308-5.3523 34.105-6.6232 12.896-11.473 18.228-21.037 23.131-8.1348 4.1706-25.793 6.0962-33.307 3.6321zm33.686-9.0166c4.4522-2.5812 10.23-8.075 12.839-12.209 15.189-24.061 12.946-67.268-4.4568-85.83-15.434-16.463-44.047-16.463-59.481 0-17.834 19.023-19.751 63.461-3.7459 86.836 12.018 17.551 35.59 22.366 54.845 11.203zm250.54 31.709c-13.76-4.8655-24.671-16.695-29.306-31.772-2.981-9.6988-3.5085-21.344-4.3056-95.067-0.61894-57.245-0.27535-84.647 1.0783-86.001 2.208-2.208 28.871-7.2566 31.112-5.891 0.78158 0.47631 1.421 11.879 1.421 25.339v24.473l30.789 0.52062 30.789 0.52062 0.5567 13.737 0.55669 13.737h-31.492-31.492l0.64931 46.895c0.72129 52.094 1.9489 58.282 12.662 63.822 7.4057 3.8296 25.103 3.8215 38.03-0.0171 5.5292-1.642 10.684-2.2815 11.455-1.421 1.7022 1.9 5.7062 17.969 5.7062 22.9 0 9.4605-48.26 15.281-68.211 8.2263zm55.569-4.9969c8.291-2.9293 9.0368-3.6752 7.961-7.9615-0.65285-2.6011-1.6646-7.1173-2.2483-10.036l-1.0613-5.3066-7.8471 2.7991c-4.3159 1.5395-13.946 2.8745-21.401 2.9667-16.521 0.20423-24.504-3.6931-30.025-14.658-3.4993-6.95-3.7895-11.298-3.7895-56.789v-49.263l30.789-0.52062 30.789-0.52062v-10.374-10.374h-31.263-31.263v-24.847-24.847l-9 1.2704c-17.389 2.4546-15.632-7.1126-15.632 85.1 0 67.68 0.50722 83.843 2.9222 93.114 6.6741 25.624 23.305 35.831 55.815 34.258 8.8579-0.42857 20.222-2.2337 25.253-4.0113zm-576.63 3c0-1.1669 5.037-1.9744 12.316-1.9744h12.316v-67.979c0-60.916 0.32547-68.249 3.1326-70.579 2.2897-1.9006 9.5553-2.6004 27-2.6004 29.34 0 34.83 2.4808 43.197 19.519l5.3019 10.797 0.6238 55.421 0.6238 55.421h12.328 12.328l-0.77594-59.211c-0.91-69.03-1.46-71.8-17.52-87.858-14.148-14.145-23.948-16.648-59.717-15.249-15.111 0.591-32.803 2.288-39.316 3.772-9.2729 2.113-11.842 2.186-11.842 0.337 0-2.9175 15.197-6.0249 41.785-8.5442 23.414-2.2185 45.897-0.01944 57.558 5.6297 16.341 7.9159 27.573 23.489 31.366 43.491 1.0576 5.5769 1.923 35.176 1.923 65.776v55.636h-16.105-16.105l-0.0395-49.737c-0.0515-64.927-2.6102-77.648-17.431-86.661-8.246-5.0147-18.322-6.3304-36.735-4.7967l-15.854 1.3206-0.49686 69.463-0.49686 69.463-14.684 0.55337c-9.2686 0.36-14.677-0.17-14.677-1.41zm368.03-78.992 0.49403-80.807 12.316-3.4199c19.678-5.4642 46.245-7.7991 62.595-5.5012 23.183 3.2582 22.681 2.6567 18.183 21.798-2.1055 8.9597-2.5325 9.4435-7.8707 8.9172-13.183-1.2998-43.945-1.2247-48.75 0.11895l-5.2105 1.4572v69.122 69.122h-16.126-16.126l0.49402-80.807zm27.968 8.8734v-68.144l4.2632-2.3721c4.6981-2.6141 42.575-3.4473 50.849-1.1186 4.7141 1.3269 4.9742 0.97677 6.8136-9.1714 1.6404-9.0504 1.4823-10.729-1.1118-11.801-1.6633-0.68733-15.814-1.1692-31.445-1.0708-22.092 0.13902-31.164 0.98921-40.737 3.8176l-12.316 3.6388-0.49495 77.182-0.49492 77.182h12.337 12.337v-68.144zm221.68-49.982v-122.06l4.2632-1.1425c2.3447-0.62836 10.018-1.1541 17.053-1.1684l12.789-0.025872v40.01 40.01l4.2632-1.1801c32.017-8.8626 68.494-1.915 83.135 15.834 3.0367 3.6814 7.4082 11.383 9.7146 17.115 3.9776 9.8849 4.2254 13.614 4.8158 72.474l0.62238 62.053h-16.054-16.054l-0.70172-56.368c-0.60781-48.827-1.1508-57.382-4.0584-63.947-8.2466-18.62-21.883-24.124-49.563-20.006l-16.072 2.3912-0.4971 68.491-0.49712 68.491-16.579 0.54744-16.579 0.54747v-122.06zm30.766 49.442 0.49731-68.684 11.368-2.4168c6.2526-1.3292 17.849-2.1171 25.769-1.7508 19.068 0.8819 26.849 5.5259 33.686 20.105 4.9489 10.553 4.9678 10.776 5.5895 66.01l0.62381 55.421h12.308 12.308l-0.67923-59.211c-0.64574-56.293-0.89141-59.743-4.9857-70.025-5.5176-13.856-19.372-26.791-33.043-30.851-12.358-3.6698-39.714-3.6905-51.75-0.03924-5.1156 1.5519-9.9406 2.8308-10.722 2.8421-0.78158 0.01137-1.421-18.834-1.421-41.879v-41.899l-9 1.2985c-4.95 0.71416-10.918 1.756-13.263 2.3153l-4.2632 1.0168v118.22 118.22h13.24 13.24l0.49733-68.684zm732.05-4.9147c-3.5819-5.7956 10.066-29.613 21.868-38.162 24.376-17.658 66.516-14.161 85.154 7.0665 7.302 8.3165 15.775 26.061 14.291 29.928-0.8995 2.3441-10.162 2.7663-60.693 2.7663-32.798 0-60.076-0.71949-60.62-1.5989zm116.33-5.5064c-0.033-6.1785-11.417-23.235-19.336-28.971-22.986-16.651-59.129-14.156-78.718 5.4334-6.2501 6.2501-13.586 19.384-13.675 24.485-0.032 1.8422 12.378 2.3684 55.853 2.3684 51.977 0 55.894-0.23242 55.877-3.3158z"/>
</svg>
